<svg width="49" height="48" viewBox="0 0 49 48" fill="none" xmlns="http://www.w3.org/2000/svg">
<rect x="1" y="0.5" width="47" height="47" rx="23.5" stroke="#2B2B2B" stroke-opacity="0.05"/>
<path d="M24.5005 34C25.6005 34 26.5005 33.1 26.5005 32V31L22.5005 31.0005L22.5005 32C22.5005 32.5304 22.7113 33.0391 23.0863 33.4142C23.4614 33.7893 23.9701 34 24.5005 34ZM30.5005 28V23C30.5005 19.93 28.8605 17.36 26.0005 16.68V16C26.0005 15.17 25.3305 14.5 24.5005 14.5C23.6705 14.5 23.0005 15.17 23.0005 16V16.68C20.1305 17.36 18.5005 19.92 18.5005 23V28L17.2105 29.29C16.5805 29.92 17.0205 31 17.9105 31H31.0805C31.9705 31 32.4205 29.92 31.7905 29.29L30.5005 28Z" stroke="#1D1E25" stroke-width="1.5"/>
</svg>
