<svg width="14" height="14" viewBox="0 0 14 14" fill="none" xmlns="http://www.w3.org/2000/svg">
<path fill-rule="evenodd" clip-rule="evenodd" d="M3.969 0H10.038C12.411 0 14 1.666 14 4.144V9.8637C14 12.334 12.411 14 10.038 14H3.969C1.596 14 0 12.334 0 9.8637V4.144C0 1.666 1.596 0 3.969 0ZM6.60003 9.09294L9.92503 5.76794C10.163 5.52994 10.163 5.14494 9.92503 4.89994C9.68703 4.66194 9.29503 4.66194 9.05703 4.89994L6.16603 7.79094L4.94103 6.56594C4.70303 6.32794 4.31103 6.32794 4.07303 6.56594C3.83503 6.80394 3.83503 7.18894 4.07303 7.43394L5.73903 9.09294C5.85803 9.21194 6.01203 9.26794 6.16603 9.26794C6.32703 9.26794 6.48103 9.21194 6.60003 9.09294Z" fill="#643FDB"/>
</svg>
